# xmcd
#
# Track frame offsets:
#	150
#	16623
#	52603
#	61873
#	71748
#	85178
#	99363
#	106913
#	122653
#	134523
#	152173
#	184443
#	193518
#	202113
# Disc length: 2846 seconds
# Revision: 1
# Processed by: cddbd v1.5.2PL0 Copyright (c) Steve Scherf et al.
#
# Submitted via: libkcddb 0.31
#
DISCID=b80b1c0e
DTITLE=Edmund Rubbra - Missa Cantuariensis Op. 59 - Dormi Jesu Op. 3 - That Virgin's Child Most Meek Op. 114 No. 2 - Missa in Honorem Sancti Dominici Op. 66
DYEAR=1975
DGENRE=Sacred
TTITLE0=Missa Cantuariensis Op. 59 (1946) - Kyrie
TTITLE1=Missa Cantuariensis Op. 59 (1946) - Credo
TTITLE2=Missa Cantuariensis Op. 59 (1946) - Sanctus
TTITLE3=Missa Cantuariensis Op. 59 (1946) - Benedictus
TTITLE4=Missa Cantuariensis Op. 59 (1946) - Agnus Dei
TTITLE5=Missa Cantuariensis Op. 59 (1946) - Gloria in Excelsis
TTITLE6=Dormi Jesu Op. 3 (1924)
TTITLE7=That Virgin's Child Most Meek Op. 114 No. 2 (1967)
TTITLE8=Missa in Honorem Sancti Dominici Op. 66 (1948) - Kyrie
TTITLE9=Missa in Honorem Sancti Dominici Op. 66 (1948) - Gloria
TTITLE10=Missa in Honorem Sancti Dominici Op. 66 (1948) - Credo
TTITLE11=Missa in Honorem Sancti Dominici Op. 66 (1948) - Sanctus
TTITLE12=Missa in Honorem Sancti Dominici Op. 66 (1948) - Benedictus
TTITLE13=Missa in Honorem Sancti Dominici Op. 66 (1948) - Agnus Dei
EXTD=
EXTT0=
EXTT1=
EXTT2=
EXTT3=
EXTT4=
EXTT5=
EXTT6=
EXTT7=
EXTT8=
EXTT9=
EXTT10=
EXTT11=
EXTT12=
EXTT13=
PLAYORDER=
